<svg xmlns="http://www.w3.org/2000/svg" width="74.344" height="86.897" viewBox="0 0 74.344 86.897">
  <g id="Grupo_81579" data-name="Grupo 81579" transform="translate(-2763.4 -90.572)">
    <path id="Trazado_116510" data-name="Trazado 116510" d="M2837.671,543.359c0,8.539-13.354,13.734-37.135,13.734-22.684,0-37.136-5.2-37.136-13.734,0-.9.081-3.908.081-3.908,3.687-5.369,19.319-7.969,37.055-7.969,17.675,0,33.3,3.008,37.05,8.029C2837.586,539.511,2837.671,542.538,2837.671,543.359Z" transform="translate(0 -379.624)" fill="#ff9210"/>
    <path id="Trazado_116511" data-name="Trazado 116511" d="M2837.671,520.986c0,8.539-13.354,13.734-37.135,13.734-22.684,0-37.136-5.2-37.136-13.734,0-6.674,16.626-11.877,37.136-11.877S2837.671,515.043,2837.671,520.986Z" transform="translate(0 -360.361)" fill="#ffb92c"/>
    <path id="Trazado_116512" data-name="Trazado 116512" d="M2868.382,94.813H2859.6l-22.5,68.673s4.756,7.5,25.976,7.5c23.781,0,27.806-7.5,27.806-7.5Z" transform="translate(-63.457 -3.652)" fill="#ffe5d2"/>
    <g id="Grupo_81578" data-name="Grupo 81578" transform="translate(2773.644 91.161)">
      <path id="Trazado_116513" data-name="Trazado 116513" d="M2954.743,270.525l-2.524-7.7a81.511,81.511,0,0,1-12.957.923,68.633,68.633,0,0,1-11.158-.831l-2.52,7.69a63.59,63.59,0,0,0,13.677,1.314A74.974,74.974,0,0,0,2954.743,270.525Z" transform="translate(-2913.286 -239.469)" fill="#ff9210"/>
      <path id="Trazado_116514" data-name="Trazado 116514" d="M2922.855,397.779l-2.959-9.031c-4.172,1.238-10.161,2.2-18.692,2.2a56.955,56.955,0,0,1-16.877-2.159l-2.944,8.986c3.942,1.689,10.183,3.236,19.821,3.236C2912.006,401.015,2918.731,399.468,2922.855,397.779Z" transform="translate(-2875.228 -347.891)" fill="#ff9210"/>
      <path id="Trazado_116515" data-name="Trazado 116515" d="M2863.077,523.8c-12.551,0-19.342-2.624-22.8-4.768l-3.18,9.707s4.756,7.5,25.976,7.5c23.781,0,27.806-7.5,27.806-7.5l-3.165-9.66C2884.193,521.214,2877.041,523.8,2863.077,523.8Z" transform="translate(-2837.101 -460.066)" fill="#ff9210"/>
      <path id="Trazado_116516" data-name="Trazado 116516" d="M2975.5,108.479a89.891,89.891,0,0,0,9.626-.478L2980.8,94.813h-8.781l-4.352,13.282A75.14,75.14,0,0,0,2975.5,108.479Z" transform="translate(-2949.521 -94.813)" fill="#ff9210"/>
    </g>
    <path id="Trazado_116517" data-name="Trazado 116517" d="M3077.5,162.064a12.758,12.758,0,0,0-4.994-3.914,60.446,60.446,0,0,0-6.968-2.641l-19.932-60.7-2.671.073,13.865,74.479L3069.583,174v3.11s4.047-1.774,5.6-3.295c3.428-3.363,3.116-5.893,3.116-5.893S3078.895,163.918,3077.5,162.064Z" transform="translate(-240.68 -3.652)" fill="#d6770f" opacity="0.34"/>
    <path id="Trazado_116518" data-name="Trazado 116518" d="M2922.221,202.2a6.348,6.348,0,0,0-.55,3.107,2.143,2.143,0,0,0,2.161,1.9,2.766,2.766,0,0,0,1.832-1.677c1.254-2.441,1.562-5.238,2.029-7.943,1.45-8.391,4.611-16.405,6.206-24.771.611-3.2-2.157-4.589-3.283-1.232-1.1,3.287-1.471,6.993-2.309,10.37Q2925.761,192.221,2922.221,202.2Z" transform="translate(-136.233 -68.086)" fill="#fff" opacity="0.4"/>
    <path id="Trazado_116519" data-name="Trazado 116519" d="M2897.662,455.984a4.528,4.528,0,0,0-.321,4.02c.66,1.713,2.541,3.061,4.312,2.576a4.2,4.2,0,0,0,1.777-1.1c1.3-1.271,2.079-3.4,1.067-4.911C2903.021,454.361,2899.235,453.542,2897.662,455.984Z" transform="translate(-115.046 -313.337)" fill="#fff" opacity="0.4"/>
    <path id="Trazado_116520" data-name="Trazado 116520" d="M2783.409,594.026a19.835,19.835,0,0,0,13.053,5.524c.655.02,1.5-.137,1.621-.78s-.6-1.1-1.223-1.318c-2.27-.781-4.712-1.006-6.939-1.9a8.033,8.033,0,0,1-3.51-2.6c-.805-1.107-.57-3.12-1.48-3.914a1.876,1.876,0,0,0-2.948.833C2781.245,591.48,2782.283,592.934,2783.409,594.026Z" transform="translate(-15.786 -428.796)" fill="#fff" opacity="0.4"/>
    <path id="Trazado_116521" data-name="Trazado 116521" d="M3007.654,91.161c0,.326-1.975.589-4.41.589s-4.411-.264-4.411-.589,1.975-.589,4.411-.589S3007.654,90.836,3007.654,91.161Z" transform="translate(-202.708)" fill="#ffb92c"/>
  </g>
</svg>
