<?xml version="1.0" encoding="utf-8"?>
<!-- Generator: Adobe Illustrator 27.0.0, SVG Export Plug-In . SVG Version: 6.00 Build 0)  -->
<svg version="1.1" id="Layer_1" xmlns="http://www.w3.org/2000/svg" xmlns:xlink="http://www.w3.org/1999/xlink" x="0px" y="0px"
	 viewBox="0 0 56.78 112.85" style="enable-background:new 0 0 56.78 112.85;" xml:space="preserve">
<style type="text/css">
	.st0{fill:none;}
	.st1{fill:#FFFFFF;}
</style>
<g>
	<path class="st0" d="M19.46,105.85C19.46,105.85,19.46,105.85,19.46,105.85c0.75,0,1.46-0.29,1.99-0.82L48.97,77.7
		c0.51-0.51,0.81-1.22,0.81-1.94V37.09c0-0.72-0.29-1.43-0.81-1.94L21.45,7.81C20.92,7.29,20.22,7,19.47,7c0,0,0,0,0,0H0v98.85
		H19.46z"/>
	<path class="st1" d="M53.91,30.19L26.38,2.85C24.53,1.01,22.08,0,19.47,0c0,0-0.01,0-0.01,0H0v7h19.47c0,0,0,0,0,0
		c0.75,0,1.45,0.29,1.98,0.81l27.52,27.34c0.51,0.51,0.81,1.22,0.81,1.94v38.66c0,0.72-0.29,1.43-0.81,1.94l-27.52,27.34
		c-0.53,0.53-1.23,0.82-1.98,0.82c0,0,0,0,0,0H0v7h19.46c0,0,0,0,0.01,0c2.61,0,5.06-1.01,6.91-2.85l27.52-27.34
		c1.83-1.81,2.88-4.33,2.88-6.91V37.09C56.78,34.52,55.73,32,53.91,30.19z"/>
</g>
</svg>
