<svg xmlns="http://www.w3.org/2000/svg" xmlns:xlink="http://www.w3.org/1999/xlink" width="91" height="90" viewBox="0 0 91 90">
  <defs>
    <clipPath id="clip-path">
      <rect id="Rectángulo_340639" data-name="Rectángulo 340639" width="67.901" height="57.979" fill="#fd9827"/>
    </clipPath>
  </defs>
  <g id="Grupo_970650" data-name="Grupo 970650" transform="translate(0 -0.142)">
    <ellipse id="Elipse_5889" data-name="Elipse 5889" cx="45.5" cy="45" rx="45.5" ry="45" transform="translate(0 0.142)" fill="#ff8a00"/>
    <g id="Grupo_970649" data-name="Grupo 970649" transform="translate(12 15.892)">
      <g id="Grupo_970648" data-name="Grupo 970648" transform="translate(0 0)" clip-path="url(#clip-path)">
        <path id="Trazado_661425" data-name="Trazado 661425" d="M67.806,55.46q-13.56-22.347-27.1-44.708c-1.09-1.809-2.61-1.84-3.726.016C29.577,23.088,22.092,35.362,14.632,47.65q-2.478,4.082-4.951,8.164a1.7,1.7,0,0,0,.389,2.439,2.413,2.413,0,0,0,1.4.3q13.694,0,27.389,0,13.628,0,27.256,0a4.443,4.443,0,0,0,.923-.061A1.628,1.628,0,0,0,68.224,56.2a6.076,6.076,0,0,0-.418-.744M37.585,23.208a3.476,3.476,0,0,1,3.765.847,2.755,2.755,0,0,1,.458,1.807c-.029,4.655-.4,9.3-.5,13.95-.013.593-.078,1.188-.041,1.777.094,1.48-.618,2.08-2.108,2.317a3.118,3.118,0,0,1-1.561-.195,1.643,1.643,0,0,1-1.143-1.664c-.073-2.765-.17-5.529-.235-7.559-.2-3.363-.289-6-.324-8.629a2.387,2.387,0,0,1,1.693-2.652m1.328,29.817a3.14,3.14,0,1,1,.012-6.279,3.14,3.14,0,0,1-.012,6.279" transform="translate(-4.896 -4.95)" fill="#fee3c0"/>
        <path id="Trazado_661426" data-name="Trazado 661426" d="M44.637,11.9q-2.664-4.39-5.33-8.778A5.979,5.979,0,0,0,34.244.007,6.069,6.069,0,0,0,28.52,3.242C22.375,13.374,16.174,23.473,10.1,33.646,6.69,39.355,2.843,44.813,0,50.85v1.976A14.175,14.175,0,0,0,.506,54.29a6.06,6.06,0,0,0,5.957,3.689q27.484-.008,54.968,0c.221,0,.442,0,.663-.012A5.88,5.88,0,0,0,65.672,56.6a6,6,0,0,0,1.2-8.063Q55.759,30.213,44.637,11.9M62.143,53.538a4.473,4.473,0,0,1-.922.06q-13.628,0-27.257,0-13.694,0-27.389,0a2.41,2.41,0,0,1-1.4-.3,1.7,1.7,0,0,1-.389-2.439Q7.251,46.777,9.736,42.7C17.2,30.412,24.681,18.139,32.087,5.819,33.2,3.962,34.724,3.994,35.814,5.8Q49.305,28.19,62.91,50.51a6.071,6.071,0,0,1,.418.744,1.629,1.629,0,0,1-1.185,2.284" transform="translate(0 0)" fill="#31313c"/>
        <path id="Trazado_661427" data-name="Trazado 661427" d="M65.7,57.232A1.643,1.643,0,0,0,66.841,58.9a3.128,3.128,0,0,0,1.561.195c1.49-.237,2.2-.838,2.108-2.318-.037-.589.028-1.184.041-1.777.1-4.652.475-9.295.5-13.95a2.757,2.757,0,0,0-.459-1.807,3.477,3.477,0,0,0-3.764-.846,2.387,2.387,0,0,0-1.693,2.651c.034,2.635.126,5.266.324,8.63.065,2.03.162,4.794.235,7.559" transform="translate(-34.142 -20.134)" fill="#31313c"/>
        <path id="Trazado_661428" data-name="Trazado 661428" d="M68.043,88.431a3.14,3.14,0,1,0-.012,6.279,3.14,3.14,0,0,0,.012-6.279" transform="translate(-34.013 -46.634)" fill="#31313c"/>
      </g>
    </g>
  </g>
</svg>
