<svg xmlns="http://www.w3.org/2000/svg" xmlns:xlink="http://www.w3.org/1999/xlink" width="1240" height="532" viewBox="0 0 1240 532">
  <defs>
    <clipPath id="clip-path">
      <rect id="Rect치ngulo_340640" data-name="Rect치ngulo 340640" width="1240" height="532" rx="23" transform="translate(-4162 -5812)" fill="#c0c942" opacity="0.3"/>
    </clipPath>
    <filter id="Trazado_661424" x="12.54" y="-2.699" width="153.114" height="124.048" filterUnits="userSpaceOnUse">
      <feOffset dy="3" input="SourceAlpha"/>
      <feGaussianBlur stdDeviation="3" result="blur"/>
      <feFlood flood-opacity="0.161"/>
      <feComposite operator="in" in2="blur"/>
      <feComposite in="SourceGraphic"/>
    </filter>
    <filter id="Trazado_661425" x="941.424" y="-71.349" width="294.031" height="294.03" filterUnits="userSpaceOnUse">
      <feOffset dy="3" input="SourceAlpha"/>
      <feGaussianBlur stdDeviation="3" result="blur-2"/>
      <feFlood flood-opacity="0.161"/>
      <feComposite operator="in" in2="blur-2"/>
      <feComposite in="SourceGraphic"/>
    </filter>
    <filter id="Trazado_661426" x="96.075" y="-2.699" width="267.775" height="183.781" filterUnits="userSpaceOnUse">
      <feOffset dy="3" input="SourceAlpha"/>
      <feGaussianBlur stdDeviation="3" result="blur-3"/>
      <feFlood flood-opacity="0.161"/>
      <feComposite operator="in" in2="blur-3"/>
      <feComposite in="SourceGraphic"/>
    </filter>
  </defs>
  <g id="Enmascarar_grupo_139" data-name="Enmascarar grupo 139" transform="translate(4162 5812)" clip-path="url(#clip-path)">
    <rect id="Rect치ngulo_340639" data-name="Rect치ngulo 340639" width="1240" height="532" rx="23" transform="translate(-4162 -5812)" fill="#fff0de"/>
    <path id="Rectangle_652" data-name="Rectangle 652" d="M19.527,351.721H1220.473c10.785,0,19.527-5.832,19.527-13.027V13.027C1240,5.832,1231.257,0,1220.473,0H19.527C8.743,0,0,5.832,0,13.027V338.695C0,345.889,8.743,351.721,19.527,351.721Z" transform="translate(-4162 -5779.191)" fill="none" opacity="0.238"/>
    <g id="Grupo_970647" data-name="Grupo 970647" transform="translate(-3819.846 -5847.745)" opacity="0.11" style="isolation: isolate">
      <path id="Trazado_661423" data-name="Trazado 661423" d="M540.888,832.409a126.332,126.332,0,0,1-39.864-6.373c-35.935-11.944-66.55-41.934-81.894-80.219-6.88-17.155-6.42-34.965-5.975-52.19.468-18.136.911-35.268-7.857-48.356-8.506-12.688-20.528-13.35-41.047-13.426a180.166,180.166,0,0,1-22.413-1.031c-34.36-4.415-64.614-29.526-75.283-62.481s-.871-71.031,24.381-94.747l17.917,19.079c-17.739,16.658-24.894,44.459-17.4,67.608s29.584,41.481,53.719,44.585a158.632,158.632,0,0,0,19.175.817c20.51.076,46.032.173,62.687,25.03,13.407,20.005,12.811,43.167,12.282,63.6-.4,15.242-.764,29.636,4.1,41.777,12.518,31.232,37.139,55.577,65.859,65.121,39.741,13.211,87.644-.89,113.891-33.533,15.852-19.72,24.449-44.679,33.557-71.1,11.753-34.122,23.912-69.4,53.177-93.548,30.426-25.1,75-32.347,116.341-18.911,44.341,14.415,74.113,47.131,91.282,72.036,8.856,12.85,16.537,26.629,23.967,39.953,15.237,27.315,29.628,53.119,52.719,70.013A96.021,96.021,0,0,0,1133.47,737.63l22.5,13.363A122.189,122.189,0,0,1,978.76,787.227c-27.71-20.269-44.187-49.814-60.123-78.387C911.5,696.05,904.129,682.823,895.976,671c-21.023-30.5-48.662-52.523-77.825-62-32.4-10.531-68.361-4.954-91.6,14.214-23.578,19.45-34.027,49.775-45.087,81.881-9.437,27.383-19.191,55.7-37.9,78.974C618.737,814.947,579.941,832.409,540.888,832.409Z" transform="translate(-241.291 -450.586)" fill="#fd9827"/>
    </g>
    <g transform="matrix(1, 0, 0, 1, -4162, -5812)" filter="url(#Trazado_661424)">
      <path id="Trazado_661424-2" data-name="Trazado 661424" d="M207.826,496.53H149.7L249.723,596.558a20.553,20.553,0,1,0,29.065-29.068Z" transform="translate(-128.15 -493.23)" fill="#fd9827" opacity="0.11"/>
    </g>
    <g transform="matrix(1, 0, 0, 1, -4162, -5812)" filter="url(#Trazado_661425)">
      <path id="Trazado_661425-2" data-name="Trazado 661425" d="M772.364,700.186,560.67,488.492a32.169,32.169,0,0,0-45.493,0h0a32.172,32.172,0,0,0,0,45.5L726.868,745.679a32.172,32.172,0,0,0,45.5,0h0A32.169,32.169,0,0,0,772.364,700.186Z" transform="translate(444.67 -544.42)" fill="#fd9827" opacity="0.11"/>
    </g>
    <g transform="matrix(1, 0, 0, 1, -4162, -5812)" filter="url(#Trazado_661426)">
      <path id="Trazado_661426-2" data-name="Trazado 661426" d="M349.6,496.53H181.614L330,644.914a59.392,59.392,0,1,0,83.993-83.993Z" transform="translate(-76.54 -493.23)" fill="#fd9827" opacity="0.11"/>
    </g>
    <path id="Trazado_661427" data-name="Trazado 661427" d="M1105.638,482.651h-30.791a4.98,4.98,0,0,0-3.521,1.458l-21.773,21.773a4.98,4.98,0,0,0-1.458,3.52v30.791a4.979,4.979,0,0,0,1.458,3.52l21.773,21.773a4.98,4.98,0,0,0,3.521,1.458h30.791a4.978,4.978,0,0,0,3.52-1.458l21.773-21.773a4.979,4.979,0,0,0,1.458-3.52V509.4a4.98,4.98,0,0,0-1.458-3.52l-21.773-21.773A4.978,4.978,0,0,0,1105.638,482.651Z" transform="translate(-4868.472 -5868.44)" fill="none" stroke="#fff" stroke-width="3"/>
    <path id="Trazado_661428" data-name="Trazado 661428" d="M18.813,0H8.746A1.628,1.628,0,0,0,7.595.477L.477,7.595A1.627,1.627,0,0,0,0,8.746V18.813a1.627,1.627,0,0,0,.477,1.151l7.118,7.118a1.628,1.628,0,0,0,1.151.477H18.813a1.627,1.627,0,0,0,1.151-.477l7.118-7.118a1.628,1.628,0,0,0,.477-1.151V8.746a1.628,1.628,0,0,0-.477-1.151L19.964.477A1.627,1.627,0,0,0,18.813,0Z" transform="translate(-3526.113 -5766.994) rotate(-30)" fill="none" stroke="#fff" stroke-width="3"/>
    <path id="Trazado_661429" data-name="Trazado 661429" d="M47.647,0h-25.5a4.124,4.124,0,0,0-2.915,1.207L1.207,19.236A4.123,4.123,0,0,0,0,22.151v25.5a4.122,4.122,0,0,0,1.207,2.915L19.236,68.59A4.124,4.124,0,0,0,22.151,69.8h25.5a4.123,4.123,0,0,0,2.915-1.207L68.59,50.562A4.122,4.122,0,0,0,69.8,47.647v-25.5a4.123,4.123,0,0,0-1.207-2.915L50.562,1.207A4.123,4.123,0,0,0,47.647,0Z" transform="translate(-3293.992 -5370.305) rotate(-30)" fill="none" stroke="#fff" stroke-width="3"/>
    <path id="Trazado_661430" data-name="Trazado 661430" d="M1089.324,482.651h-22.062a3.568,3.568,0,0,0-2.522,1.045l-15.6,15.6a3.567,3.567,0,0,0-1.045,2.522V523.88a3.567,3.567,0,0,0,1.045,2.522l15.6,15.6a3.568,3.568,0,0,0,2.522,1.045h22.062a3.567,3.567,0,0,0,2.522-1.045l15.6-15.6a3.567,3.567,0,0,0,1.045-2.522V501.818a3.568,3.568,0,0,0-1.045-2.522l-15.6-15.6A3.567,3.567,0,0,0,1089.324,482.651Z" transform="translate(-5148.472 -6074.542)" fill="none" stroke="#fff" stroke-width="3"/>
  </g>
</svg>
