<svg id="accidente-automovilistico" xmlns="http://www.w3.org/2000/svg" width="86" height="78.494" viewBox="0 0 86 78.494">
  <circle id="Elipse_4804" data-name="Elipse 4804" cx="29" cy="29" r="29" transform="translate(20 3.075)" fill="#e8e6dd"/>
  <g id="Grupo_81272" data-name="Grupo 81272" transform="translate(34.381)">
    <path id="Trazado_116406" data-name="Trazado 116406" d="M157.688,39.66a1.34,1.34,0,0,0,.95-.394l3.8-3.8a1.344,1.344,0,1,0-1.9-1.9l-3.8,3.8a1.344,1.344,0,0,0,.95,2.294Z" transform="translate(-156.345 -33.173)"/>
    <path id="Trazado_116407" data-name="Trazado 116407" d="M161.488,39.66a1.344,1.344,0,0,0,.95-2.294l-3.8-3.8a1.344,1.344,0,0,0-1.9,1.9l3.8,3.8A1.338,1.338,0,0,0,161.488,39.66Z" transform="translate(-156.344 -33.172)"/>
    <circle id="Elipse_4805" data-name="Elipse 4805" cx="1.521" cy="1.521" r="1.521" transform="translate(21.207 3.738)"/>
  </g>
  <g id="Grupo_81273" data-name="Grupo 81273" transform="translate(32.25 61.025)">
    <path id="Trazado_116408" data-name="Trazado 116408" d="M77.063,222.859H27.216L26,218.828H77.063Z" transform="translate(-24.656 -217.484)" fill="#77a052"/>
    <path id="Trazado_116409" data-name="Trazado 116409" d="M24.56,221.547H74.406A1.344,1.344,0,0,0,75.75,220.2v-4.031a1.344,1.344,0,0,0-1.344-1.344H23.344a1.344,1.344,0,0,0-1.287,1.731l1.216,4.031A1.344,1.344,0,0,0,24.56,221.547Zm48.5-2.687h-47.5l-.4-1.344h47.91Z" transform="translate(-22 -214.828)"/>
  </g>
  <circle id="Elipse_4806" data-name="Elipse 4806" cx="1.521" cy="1.521" r="1.521" transform="translate(60.963 14.488)"/>
  <g id="Grupo_81274" data-name="Grupo 81274" transform="translate(30.906 42.212)">
    <path id="Trazado_116410" data-name="Trazado 116410" d="M78.406,162.828H32.218c-3.434,0-6.218,3.069-6.218,6.856v9.424a2.424,2.424,0,0,0,2.3,2.533H78.406" transform="translate(-24.656 -161.484)" fill="#a9ba5a"/>
    <path id="Trazado_116411" data-name="Trazado 116411" d="M25.642,180.328H75.75a1.344,1.344,0,0,0,0-2.687H25.642a1.106,1.106,0,0,1-.954-1.19v-9.423c0-3.039,2.187-5.512,4.874-5.512H75.75a1.344,1.344,0,0,0,0-2.687H29.562c-4.17,0-7.562,3.678-7.562,8.2v9.423A3.769,3.769,0,0,0,25.642,180.328Z" transform="translate(-22 -158.828)"/>
  </g>
  <g id="Grupo_81275" data-name="Grupo 81275" transform="translate(53.75 26.087)">
    <path id="Trazado_116412" data-name="Trazado 116412" d="M55.563,114.828H52.772c-8.368,0-16.221,3.464-21.085,9.3L26,130.953H55.563" transform="translate(-24.656 -113.484)" fill="#c1dbdc"/>
    <path id="Trazado_116413" data-name="Trazado 116413" d="M23.344,129.641H52.907a1.344,1.344,0,0,0,0-2.687H26.213l3.85-4.62c4.6-5.521,12.1-8.817,20.052-8.817h2.791a1.344,1.344,0,0,0,0-2.687H50.116c-8.743,0-17.012,3.658-22.117,9.784l-5.687,6.824a1.343,1.343,0,0,0,1.032,2.2Z" transform="translate(-22 -110.828)"/>
  </g>
  <g id="Grupo_81276" data-name="Grupo 81276" transform="translate(40.313 51.619)">
    <ellipse id="Elipse_4807" data-name="Elipse 4807" cx="9" cy="9.5" rx="9" ry="9.5" transform="translate(1.688 1.456)" fill="#6b4f5b"/>
    <path id="Trazado_116414" data-name="Trazado 116414" d="M104.75,208.328A10.75,10.75,0,1,0,94,197.578,10.762,10.762,0,0,0,104.75,208.328Zm0-18.812a8.063,8.063,0,1,1-8.062,8.063A8.071,8.071,0,0,1,104.75,189.516Z" transform="translate(-94 -186.828)"/>
  </g>
  <g id="Grupo_81277" data-name="Grupo 81277" transform="translate(44.344 55.65)">
    <ellipse id="Elipse_4808" data-name="Elipse 4808" cx="5" cy="5.5" rx="5" ry="5.5" transform="translate(1.656 1.425)" fill="#ccc"/>
    <path id="Trazado_116415" data-name="Trazado 116415" d="M112.719,212.266A6.719,6.719,0,1,0,106,205.547,6.727,6.727,0,0,0,112.719,212.266Zm0-10.75a4.031,4.031,0,1,1-4.031,4.031A4.036,4.036,0,0,1,112.719,201.516Z" transform="translate(-106 -198.828)"/>
  </g>
  <path id="Trazado_116416" data-name="Trazado 116416" d="M79.342,152.2a1.336,1.336,0,0,0,.425-.07l8.063-2.687a1.344,1.344,0,0,0-.851-2.55l-8.062,2.688a1.344,1.344,0,0,0,.425,2.619Z" transform="translate(-21.561 -108.644)"/>
  <path id="Trazado_116417" data-name="Trazado 116417" d="M76.685,146.889a1.343,1.343,0,0,0,1.305-1.67l-1.344-5.375a1.344,1.344,0,0,0-2.608.652l1.344,5.375A1.345,1.345,0,0,0,76.685,146.889Z" transform="translate(-9.499 -103.333)"/>
  <g id="Grupo_81278" data-name="Grupo 81278" transform="translate(30.906 46.244)">
    <path id="Trazado_116418" data-name="Trazado 116418" d="M158,178.859h5.277a2.785,2.785,0,0,0,2.785-2.785v-1.246h-5.375A2.688,2.688,0,0,0,158,177.516Z" transform="translate(-156.656 -173.484)" fill="#ffce56"/>
    <path id="Trazado_116419" data-name="Trazado 116419" d="M155.344,177.547h5.277a4.134,4.134,0,0,0,4.129-4.129v-1.246a1.344,1.344,0,0,0-1.344-1.344h-5.375A4.036,4.036,0,0,0,154,174.859V176.2A1.344,1.344,0,0,0,155.344,177.547Zm6.715-4.031a1.444,1.444,0,0,1-1.438,1.344h-3.933a1.346,1.346,0,0,1,1.344-1.344Z" transform="translate(-154 -170.828)"/>
  </g>
  <path id="Trazado_116420" data-name="Trazado 116420" d="M91.431,179.733h.06a1.344,1.344,0,0,0,1.284-1.4A13.688,13.688,0,0,0,84.727,166v-5.832a1.344,1.344,0,0,0-2.687,0v6.719a1.344,1.344,0,0,0,.852,1.251,11.122,11.122,0,0,1,7.2,10.306,1.344,1.344,0,0,0,1.341,1.285Z" transform="translate(-26.945 -116.616)"/>
  <path id="Trazado_116421" data-name="Trazado 116421" d="M35.344,173.516h2.688a1.344,1.344,0,0,0,0-2.687H35.344a1.344,1.344,0,0,0,0,2.688Z" transform="translate(42.594 -124.584)"/>
  <g id="Grupo_81279" data-name="Grupo 81279" transform="translate(1.344 38.181)">
    <path id="Trazado_116422" data-name="Trazado 116422" d="M194,150.828h19.313a6.135,6.135,0,0,1,6.218,6.049v11.872a2.267,2.267,0,0,1-2.3,2.235H194" transform="translate(-192.656 -149.484)" fill="#ffce56"/>
    <path id="Trazado_116423" data-name="Trazado 116423" d="M191.344,169.672h23.233a3.615,3.615,0,0,0,3.642-3.579V154.221a7.487,7.487,0,0,0-7.562-7.393H191.344a1.344,1.344,0,0,0,0,2.688h19.313a4.8,4.8,0,0,1,4.874,4.705v11.872a.925.925,0,0,1-.954.892H191.344a1.344,1.344,0,0,0,0,2.688Z" transform="translate(-190 -146.828)"/>
  </g>
  <g id="Grupo_81280" data-name="Grupo 81280" transform="translate(1.344 58.337)">
    <path id="Trazado_116424" data-name="Trazado 116424" d="M195.344,218.891H215.5l4.031-8.062H194Z" transform="translate(-192.656 -209.484)" fill="#6b4f5b"/>
    <path id="Trazado_116425" data-name="Trazado 116425" d="M192.688,217.578h20.156a1.343,1.343,0,0,0,1.2-.743l4.031-8.062a1.344,1.344,0,0,0-1.2-1.945H191.344a1.343,1.343,0,0,0-1.326,1.565l1.344,8.063A1.344,1.344,0,0,0,192.688,217.578Zm19.325-2.687H193.826l-.9-5.375H214.7Z" transform="translate(-190 -206.828)"/>
  </g>
  <g id="Grupo_81281" data-name="Grupo 81281" transform="translate(0 51.619)">
    <circle id="Elipse_4809" data-name="Elipse 4809" cx="9.5" cy="9.5" r="9.5" transform="translate(1 1.456)" fill="#6b4f5b"/>
    <path id="Trazado_116426" data-name="Trazado 116426" d="M224.75,208.328A10.75,10.75,0,1,0,214,197.578,10.762,10.762,0,0,0,224.75,208.328Zm0-18.812a8.063,8.063,0,1,1-8.062,8.063A8.071,8.071,0,0,1,224.75,189.516Z" transform="translate(-214 -186.828)"/>
  </g>
  <g id="Grupo_81282" data-name="Grupo 81282" transform="translate(4.031 55.65)">
    <circle id="Elipse_4810" data-name="Elipse 4810" cx="5.5" cy="5.5" r="5.5" transform="translate(0.969 1.425)" fill="#ccc"/>
    <path id="Trazado_116427" data-name="Trazado 116427" d="M232.719,212.266A6.719,6.719,0,1,0,226,205.547,6.727,6.727,0,0,0,232.719,212.266Zm0-10.75a4.031,4.031,0,1,1-4.031,4.031A4.036,4.036,0,0,1,232.719,201.516Z" transform="translate(-226 -198.828)"/>
  </g>
  <path id="Trazado_116428" data-name="Trazado 116428" d="M44.719,253.547h64.5a6.719,6.719,0,0,0,6.719-6.719H38A6.719,6.719,0,0,0,44.719,253.547Z" transform="translate(-35.313 -175.053)" fill="#b5a19c"/>
  <path id="Trazado_116429" data-name="Trazado 116429" d="M35.344,245.516h77.938a1.344,1.344,0,0,0,0-2.687H35.344a1.344,1.344,0,0,0,0,2.688Z" transform="translate(-32.656 -172.397)"/>
  <g id="Grupo_81283" data-name="Grupo 81283" transform="translate(22.844 44.9)">
    <path id="Trazado_116430" data-name="Trazado 116430" d="M198.031,170.828H194V176.2h4.031Z" transform="translate(-192.656 -169.484)" fill="#e66353"/>
    <path id="Trazado_116431" data-name="Trazado 116431" d="M191.344,174.891h4.031a1.344,1.344,0,0,0,1.344-1.344v-5.375a1.344,1.344,0,0,0-1.344-1.344h-4.031A1.344,1.344,0,0,0,190,168.172v5.375A1.344,1.344,0,0,0,191.344,174.891Zm2.688-2.687h-1.344v-2.687h1.344Z" transform="translate(-190 -166.828)"/>
  </g>
  <g id="Grupo_81284" data-name="Grupo 81284" transform="translate(31.707 20.036)">
    <path id="Trazado_116432" data-name="Trazado 116432" d="M142.256,115.152l12.551-8.434-5.03-1.895,1.947-5.17-5.071,2.026-2.474-4.868Z" transform="translate(-140.912 -95.468)" fill="#e66353"/>
    <path id="Trazado_116433" data-name="Trazado 116433" d="M139.6,113.841a1.339,1.339,0,0,0,.749-.228l12.551-8.434a1.344,1.344,0,0,0-.275-2.373l-3.773-1.421,1.474-3.912a1.344,1.344,0,0,0-1.756-1.722l-3.931,1.57-1.917-3.773a1.344,1.344,0,0,0-2.535.469l-1.924,18.342a1.342,1.342,0,0,0,1.336,1.484Zm9.638-9.44-8,5.378,1.15-10.961.413.814a1.344,1.344,0,0,0,1.7.639l2.241-.895-.873,2.318a1.345,1.345,0,0,0,.784,1.732Z" transform="translate(-138.257 -92.813)"/>
  </g>
  <g id="Grupo_81285" data-name="Grupo 81285" transform="translate(15.276 19.66)">
    <path id="Trazado_116434" data-name="Trazado 116434" d="M202.718,108.167,201.247,95.7l-3.38,4.179-3.134-2.535-.445,4.824-4.625,1.445Z" transform="translate(-188.318 -94.351)" fill="#e66353"/>
    <path id="Trazado_116435" data-name="Trazado 116435" d="M200.061,106.854a1.344,1.344,0,0,0,1.335-1.5l-1.471-12.472a1.344,1.344,0,0,0-2.379-.688l-2.535,3.134-2.089-1.689a1.343,1.343,0,0,0-2.183.921l-.363,3.932-3.77,1.177a1.343,1.343,0,0,0-.043,2.551l13.056,4.559a1.337,1.337,0,0,0,.443.076Zm-2.432-10.491.846,7.17-7.189-2.51.745-.233a1.343,1.343,0,0,0,.938-1.159l.215-2.325,1.183.956a1.343,1.343,0,0,0,1.89-.2Z" transform="translate(-185.661 -91.694)"/>
  </g>
</svg>
